<?xml version="1.0" encoding="utf-8"?>
<!-- Generator: Adobe Illustrator 25.0.0, SVG Export Plug-In . SVG Version: 6.00 Build 0)  -->
<svg version="1.1" id="Слой_1" xmlns="http://www.w3.org/2000/svg" xmlns:xlink="http://www.w3.org/1999/xlink" x="0px" y="0px"
	 viewBox="0 0 2000 2000" style="enable-background:new 0 0 2000 2000;" xml:space="preserve">
<style type="text/css">
	.st0{fill:none;}
	.st1{fill:url(#SVGID_1_);}
	.st2{fill:url(#SVGID_2_);}
	.st3{fill:url(#SVGID_3_);}
	.st4{fill:url(#SVGID_4_);}
	.st5{fill:url(#SVGID_5_);}
	.st6{fill:url(#SVGID_6_);}
	.st7{fill:url(#SVGID_7_);}
	.st8{fill:url(#SVGID_8_);}
	.st9{fill:url(#SVGID_9_);}
	.st10{fill:url(#SVGID_10_);}
	.st11{fill:url(#SVGID_11_);}
	.st12{fill:url(#SVGID_12_);}
	.st13{fill:url(#SVGID_13_);}
	.st14{fill:url(#SVGID_14_);}
</style>
<rect x="31.25" y="0" class="st0" width="1968.75" height="2000"/>
<g>
	<g>
		<linearGradient id="SVGID_1_" gradientUnits="userSpaceOnUse" x1="976.3405" y1="2006.8469" x2="1025.403" y2="-81.0374">
			<stop  offset="0" style="stop-color:#D8B2E0"/>
			<stop  offset="1" style="stop-color:#9AFFFF"/>
		</linearGradient>
		<path class="st1" d="M1756.98,346.53c-0.76-0.9-1.53-1.77-2.33-2.67C1597.64,163.47,1377.01,39.86,1127.71,8.09
			c-22.95-2.95-46.15-5.07-69.58-6.42c-1.15-0.07-2.33-0.14-3.47-0.21C1036.56,0.49,1018.33,0,1000,0
			c-86.74,0-170.9,11.04-251.15,31.81c-30.66,7.95-60.76,17.29-90.21,27.99C626.18,71.56,594.48,85,563.68,99.97
			C610.21,78.44,659.31,61.6,710.38,50c53.44-12.19,109.03-18.61,166.11-18.61c60.52,0,119.38,7.22,175.76,20.87l-21.22,445.42
			L906.53,622.19l-0.38,0.38l-30.94,154.65L440.52,590.94l-72.05-360.21c29.58-27.36,61.35-52.4,95.03-74.76
			c-25.45,16.22-50.1,33.51-73.92,51.94c-4.06,3.09-8.09,6.25-12.08,9.44c-3.37,2.64-6.74,5.35-10.07,8.09
			c-1.01,0.83-2.05,1.67-3.06,2.5C141.87,411.35,0,689.1,0,1000c0,552.29,447.71,1000,1000,1000
			c171.18,0,332.33-43.02,473.19-118.85c37.01-19.9,72.64-42.08,106.67-66.32c82.57-58.89,155.8-129.97,217.05-210.66
			c3.75-4.93,7.46-9.9,11.11-14.9C1928.75,1424.03,2000,1220.35,2000,1000C2000,750.21,1908.4,521.81,1756.98,346.53z
			 M759.41,1518.75c-1.91-0.28-3.82-0.59-5.69-0.94c-8.68-1.42-17.33-2.99-25.87-4.72c-2.81-0.59-5.62-1.18-8.4-1.77
			c-3.02-0.66-6.04-1.32-9.06-2.01c-3.26-0.73-6.56-1.49-9.83-2.29c-0.28-0.07-0.52-0.14-0.8-0.21c-2.81-0.69-5.63-1.39-8.44-2.08
			c-10.42-2.64-20.73-5.52-30.97-8.65c-2.99-0.9-5.97-1.81-8.96-2.78c-6.35-2.01-12.64-4.1-18.92-6.28h-0.03
			c-2.99-1.04-5.97-2.08-8.92-3.13c-2.05-0.73-4.1-1.49-6.15-2.26c-1.7-0.62-3.33-1.25-5-1.88c-2.64-0.97-5.28-1.98-7.88-3.02
			c-1.42-0.56-2.85-1.11-4.27-1.7c-5.42-2.15-10.8-4.38-16.15-6.67c-3.02-1.29-6.04-2.57-9.03-3.89c-3.68-1.63-7.33-3.26-11.01-4.97
			c-3.06-1.42-6.11-2.85-9.17-4.34c-0.73-0.31-1.42-0.66-2.12-1.01c-3.68-1.77-7.36-3.58-11.01-5.42c-1.67-0.83-3.33-1.7-5.03-2.57
			c-2.26-1.11-4.48-2.26-6.7-3.47c-3.33-1.74-6.63-3.51-9.93-5.31c-2.95-1.56-5.87-3.19-8.78-4.83c-1.15-0.62-2.26-1.28-3.4-1.94
			c-2.47-1.39-4.9-2.78-7.33-4.2c-1.35-0.76-2.67-1.56-4.03-2.4c-2.19-1.28-4.34-2.57-6.49-3.85c-11.01-6.67-21.81-13.61-32.43-20.8
			l290.83-111.87l27.71-10.66l69.72-26.81l2.33-0.9l-37.95-43.37l-58.16-66.49L630,999.76l258.26-28.68l21.49-2.4l-30.73-184.44
			l276.49,245.8l-50.59,88.54l-74.83,130.97l126.15,31.53l32.67,8.16l30,7.5l35.87,8.99l121.46,30.35
			c-2.99,2.71-6.01,5.38-9.06,7.99c-3.89,3.37-7.81,6.74-11.77,10.03c-1.98,1.67-3.96,3.3-5.94,4.93s-3.99,3.26-6.01,4.86
			c-4.03,3.23-8.06,6.42-12.15,9.55c-8.37,6.42-16.84,12.64-25.49,18.72c-1.67,1.15-3.33,2.33-5,3.51
			c-4.9,3.37-9.86,6.74-14.9,10.03c-1.77,1.15-3.51,2.26-5.28,3.4c-8.47,5.49-17.08,10.8-25.83,15.94c-5.76,3.4-11.6,6.74-17.5,9.97
			c-3.4,1.91-6.84,3.75-10.28,5.59c-2.29,1.22-4.58,2.43-6.91,3.61c-1.7,0.9-3.4,1.77-5.1,2.64c-3.06,1.56-6.11,3.09-9.17,4.58
			c-3.09,1.53-6.15,3.02-9.24,4.48c-2.57,1.22-5.14,2.43-7.71,3.58c-3.65,1.7-7.33,3.37-11.01,5c-2.4,1.08-4.79,2.12-7.19,3.13
			c-0.62,0.28-1.28,0.56-1.91,0.83c-4.06,1.74-8.19,3.44-12.33,5.1c-0.07,0.03-0.14,0.07-0.24,0.1c-0.03,0.03-0.07,0.03-0.14,0.03
			c-9.44,3.85-18.99,7.5-28.65,10.9c-1.35,0.49-2.74,0.97-4.13,1.46c-2.74,0.97-5.52,1.94-8.3,2.88c-2.78,0.94-5.56,1.88-8.33,2.74
			c-2.81,0.9-5.59,1.81-8.4,2.67c-2.81,0.87-5.63,1.74-8.44,2.57c-2.81,0.83-5.62,1.67-8.47,2.47c-8.89,2.57-17.85,4.93-26.91,7.15
			c-2.88,0.69-5.73,1.39-8.65,2.05c-1.84,0.45-3.75,0.87-5.59,1.28c-6.77,1.53-13.58,2.95-20.42,4.27
			c-1.81,0.35-3.65,0.69-5.49,1.04c-3.65,0.69-7.29,1.35-11.01,1.98c-2.57,0.45-5.17,0.87-7.78,1.28
			c-9.76,1.6-19.58,2.95-29.48,4.13c-3.23,0.38-6.46,0.76-9.69,1.11c-5.21,0.56-10.45,1.08-15.73,1.49
			c-1.67,0.17-3.37,0.31-5.03,0.42c-4.13,0.35-8.26,0.62-12.43,0.87c-3.26,0.21-6.56,0.38-9.86,0.56c-3.06,0.14-6.11,0.28-9.17,0.38
			c-0.28,0.03-0.52,0.03-0.8,0.03c-4.13,0.14-8.3,0.28-12.47,0.35c-0.59,0-1.15,0.03-1.7,0c-4.24,0.1-8.47,0.14-12.71,0.14
			c-1.46,0-2.88,0-4.34-0.03c-1.42,0.03-2.85,0-4.31-0.03c-1.56,0-3.13-0.03-4.69-0.07c-2.78-0.03-5.59-0.07-8.4-0.17
			c-18.23-0.52-36.32-1.7-54.2-3.54c-1.67-0.17-3.37-0.31-5.03-0.52c-1.87-0.17-3.78-0.38-5.66-0.62
			C779.65,1521.74,769.48,1520.35,759.41,1518.75z M1594.37,568.4c1.7,5.69,3.3,11.46,4.83,17.22c1.01,3.68,1.98,7.4,2.92,11.08
			c1.08,4.24,2.12,8.51,3.09,12.78c0.42,1.84,0.83,3.65,1.25,5.49c0.45,1.87,0.87,3.75,1.25,5.62c0.49,2.15,0.94,4.34,1.39,6.53
			c0.17,0.73,0.31,1.46,0.45,2.19c0.62,2.99,1.25,6.01,1.81,9.03c1.01,5.17,1.94,10.35,2.85,15.59c0.49,2.88,0.97,5.83,1.42,8.78
			c0.1,0.56,0.17,1.11,0.24,1.67c0.21,1.42,0.45,2.85,0.66,4.27c1.6,10.59,2.95,21.25,4.06,32.01c0.14,1.04,0.28,2.15,0.35,3.23
			c0,0.03,0.03,0.1,0,0.17c0.21,1.91,0.38,3.78,0.56,5.69c0.07,0.38,0.1,0.76,0.1,1.15c0.28,3.09,0.56,6.11,0.8,9.2
			c0.38,4.58,0.69,9.2,0.97,13.85c0.1,1.67,0.21,3.4,0.28,5.07c0.24,3.89,0.42,7.85,0.56,11.77c0.17,4.38,0.31,8.75,0.38,13.16
			c0,0,0,0.03,0,0.07c0.03,0.94,0.03,1.87,0.03,2.85c0.03,0.8,0.07,1.6,0.03,2.4c0.07,3.44,0.1,6.91,0.1,10.38
			c0,2.85,0,5.66-0.07,8.47c0,2.01-0.03,4.06-0.1,6.08c0,1.77-0.03,3.54-0.1,5.31c-0.03,1.81-0.1,3.58-0.17,5.35
			c-0.07,2.43-0.14,4.86-0.28,7.29c-0.21,5.35-0.49,10.62-0.83,15.9c-0.35,5.14-0.73,10.24-1.15,15.35
			c-0.66,8.06-1.46,16.04-2.43,23.99c-0.24,2.15-0.52,4.31-0.8,6.46c-0.59,5.07-1.28,10.1-2.05,15.1c-0.35,2.5-0.73,5-1.15,7.5
			c-0.38,2.5-0.8,5-1.22,7.5c-0.42,2.47-0.83,4.97-1.28,7.47c-0.87,4.97-1.81,9.93-2.81,14.83c-0.45,2.33-0.94,4.69-1.42,7.01
			c-0.03,0.31-0.1,0.62-0.21,0.94c-0.45,2.26-0.94,4.51-1.46,6.77c-1.7,7.85-3.54,15.62-5.56,23.33c-0.45,1.94-0.97,3.89-1.49,5.83
			c-0.94,3.61-1.91,7.22-2.95,10.83c-3.65,13.19-7.71,26.22-12.08,39.06c-0.8,2.36-1.6,4.69-2.43,7.01c-0.9,2.6-1.81,5.21-2.78,7.78
			c-3.13,8.68-6.46,17.29-9.93,25.8c-0.8,2.05-1.63,4.03-2.5,6.04c-1.98,4.86-4.06,9.69-6.21,14.48c-0.38,0.94-0.8,1.91-1.25,2.81
			c-2.19,4.93-4.41,9.83-6.74,14.65c-0.94,2.05-1.94,4.1-2.95,6.15c-2.99,6.25-6.08,12.4-9.24,18.47c-1.25,2.47-2.54,4.9-3.85,7.29
			c-7.85,14.72-16.15,29.13-24.93,43.23c-1.81,2.92-3.61,5.8-5.49,8.68c-2.67,4.2-5.38,8.37-8.16,12.47
			c-2.08,3.12-4.2,6.22-6.35,9.31c-0.17,0.28-0.35,0.56-0.52,0.76c-1.6,2.33-3.23,4.65-4.86,6.94c-1.88,2.67-3.78,5.31-5.69,7.92
			c-1.87,2.57-3.75,5.1-5.69,7.67c-1.88,2.53-3.78,5.07-5.76,7.6c-1.91,2.53-3.89,5.03-5.87,7.53c-0.38,0.49-0.76,0.97-1.11,1.42
			c-7.26,9.13-14.69,18.06-22.33,26.81c-0.35,0.38-0.66,0.76-1.01,1.15c-2.08,2.4-4.2,4.79-6.32,7.15
			c-2.71,3.02-5.42,5.97-8.16,8.92c-1.32,1.42-2.6,2.85-3.99,4.24c-3.65,3.92-7.36,7.78-11.11,11.56c-1.35,1.39-2.74,2.81-4.17,4.2
			c-1.39,1.42-2.81,2.81-4.2,4.2c-2.71,2.67-5.45,5.35-8.23,7.99c-4.58,4.41-9.24,8.75-13.96,13.02l-122.78-30.69l-35.87-8.96
			l-31.77-7.95l-32.67-8.19l-120.87-30.21l72.19-126.35l48.68-85.14l3.72-6.49l-3.72-3.3L879.48,780l102.5-56.94l175.87-97.71
			l23.96,10.66l162.47,72.22l95.24,42.33l16.21-20.66l26.6-33.85l108.79-138.44C1592.22,561.18,1593.33,564.79,1594.37,568.4z
			 M909.34,624.27l125.1-125.1l21.25-446.08c4.06,1.01,8.12,2.05,12.15,3.13c0.66,0.17,1.35,0.35,2.05,0.56
			c2.5,0.62,4.97,1.32,7.43,2.01c7.88,2.19,15.69,4.51,23.47,6.98c1.7,0.52,3.4,1.08,5.1,1.63c3.26,1.08,6.56,2.12,9.83,3.23
			c3.26,1.11,6.53,2.22,9.76,3.37c3.37,1.18,6.74,2.4,10.07,3.68c2.19,0.76,4.38,1.6,6.56,2.47c2.85,1.08,5.69,2.19,8.54,3.3
			c3.26,1.28,6.49,2.6,9.72,3.92c2.67,1.08,5.31,2.19,7.95,3.33c2.64,1.11,5.28,2.29,7.92,3.44c7.36,3.16,14.62,6.49,21.81,9.97
			c0.21,0.07,0.49,0.17,0.69,0.35c5.45,2.57,10.87,5.24,16.25,8.02c2.4,1.22,4.76,2.43,7.12,3.68c3.13,1.6,6.22,3.26,9.31,4.97
			c2.08,1.11,4.17,2.26,6.25,3.4c4.34,2.36,8.65,4.79,12.92,7.29c4.51,2.6,8.96,5.28,13.4,7.99c2.53,1.53,5.03,3.06,7.5,4.62
			c2.71,1.67,5.38,3.37,8.06,5.1c7.33,4.65,14.55,9.48,21.7,14.48c2.19,1.46,4.38,2.99,6.53,4.51c1.94,1.35,3.85,2.74,5.76,4.13
			c1.22,0.87,2.47,1.77,3.68,2.67c1.94,1.42,3.89,2.85,5.8,4.31c2.57,1.91,5.14,3.85,7.71,5.8c0.31,0.24,0.66,0.49,0.97,0.76
			c2.19,1.7,4.38,3.4,6.56,5.1l0.03,0.03c0.59,0.45,1.22,0.94,1.84,1.46c0.03,0,0.1,0.03,0.14,0.1c2.36,1.84,4.69,3.72,6.98,5.59
			c2.67,2.19,5.35,4.38,7.99,6.56c7.92,6.6,15.69,13.37,23.37,20.35c2.57,2.29,5.1,4.62,7.6,6.98c1.18,1.11,2.4,2.22,3.58,3.37
			c1.39,1.28,2.74,2.57,4.13,3.92c2.36,2.26,4.76,4.58,7.08,6.88c0.03,0.03,0.1,0.07,0.14,0.14c2.12,2.08,4.24,4.2,6.32,6.28
			c0.94,0.94,1.84,1.88,2.78,2.81c1.81,1.84,3.61,3.72,5.38,5.56c2.4,2.5,4.76,5,7.12,7.5c4.72,5.03,9.34,10.1,13.89,15.28
			c1.7,1.87,3.4,3.82,5.03,5.76c1.53,1.7,2.99,3.4,4.44,5.14c1.84,2.12,3.65,4.31,5.42,6.46c0.24,0.24,0.45,0.49,0.62,0.73
			c1.32,1.56,2.64,3.16,3.89,4.72c0.69,0.8,1.32,1.6,1.94,2.4c1.39,1.67,2.74,3.37,4.1,5.07c1.98,2.47,3.96,5,5.9,7.5
			c2.33,2.99,4.62,6.01,6.88,9.06c0.21,0.21,0.38,0.42,0.52,0.66c2.33,3.06,4.58,6.15,6.84,9.27c4.38,5.97,8.65,12.05,12.78,18.16
			c1.94,2.85,3.89,5.69,5.76,8.58c0.97,1.42,1.91,2.88,2.88,4.34c8.54,13.09,16.67,26.46,24.34,40.07c1.25,2.15,2.47,4.31,3.65,6.49
			c2.15,3.82,4.24,7.67,6.28,11.56c0.87,1.63,1.7,3.23,2.57,4.86c1.56,3.02,3.13,6.04,4.65,9.1c1.46,2.92,2.95,5.87,4.38,8.82
			c0.03,0.1,0.1,0.21,0.14,0.31c1.18,2.36,2.33,4.79,3.44,7.19c0.87,1.74,1.67,3.47,2.5,5.24c3.09,6.67,6.11,13.4,8.99,20.21
			c4.2,9.79,8.23,19.72,11.98,29.76c0.87,2.19,1.67,4.34,2.47,6.53c2.01,5.45,3.96,10.97,5.83,16.49c0.66,1.94,1.32,3.92,1.98,5.87
			c1.01,3.06,2.01,6.11,2.99,9.17v0.03L1479.1,694.58l-26.63,33.89l-13.99,17.81l-90.38-40.17h-0.03l-162.43-72.22l-27.95-12.43
			l-174.79,97.12l-103.96,57.74L909.34,624.27z M905.73,965.62l-18.06,2.01l-264.69,29.41l124.86,142.71l58.19,66.49l36.25,41.42
			l-68.58,26.39l-27.71,10.66L454.1,1396.98c-1.6-1.08-3.19-2.19-4.76-3.3c-1.6-1.11-3.16-2.22-4.72-3.33
			c-6.77-4.79-13.47-9.69-20.07-14.72c-1.6-1.22-3.23-2.47-4.83-3.68c-27.95-21.6-54.34-45.14-78.96-70.42
			c-1.81-1.84-3.58-3.68-5.35-5.56c-1.7-1.74-3.37-3.51-5-5.28c-2.22-2.33-4.37-4.69-6.53-7.05c-5.97-6.56-11.84-13.19-17.6-19.97
			c-2.53-3.02-5.07-6.01-7.57-9.06c-0.17-0.21-0.35-0.42-0.52-0.62c-1.87-2.26-3.72-4.55-5.56-6.84c-6.01-7.5-11.88-15.1-17.6-22.85
			c-2.47-3.3-4.9-6.63-7.29-10c-2.4-3.33-4.76-6.74-7.12-10.1c-1.63-2.36-3.23-4.72-4.83-7.08c-4.58-6.77-9.03-13.61-13.37-20.52
			l121.18-196.91l46.18-75.07l-12.47-18.72l-52.01-78.02l-59.06-88.61l258.33,27.19h0.03L875,781.25L905.73,965.62z M275.03,335
			c1.81-2.43,3.61-4.86,5.45-7.29c2.05-2.71,4.1-5.38,6.18-8.02c0.07-0.1,0.17-0.21,0.24-0.31c0.07-0.07,0.14-0.17,0.21-0.24
			c1.49-1.94,3.02-3.82,4.51-5.73c1.77-2.19,3.51-4.38,5.28-6.53c11.63-14.24,23.78-28.06,36.42-41.39
			c2.08-2.19,4.17-4.37,6.28-6.56c2.12-2.15,4.24-4.31,6.35-6.46c2.15-2.19,4.31-4.31,6.46-6.42c1.91-1.91,3.82-3.75,5.76-5.59
			c2.43-2.36,4.86-4.65,7.29-6.94l71.81,358.99l0.17,0.9l427.78,183.3l-331.49-34.9h-0.03l-254.48-26.77l61.6,92.4l52.01,77.99
			l12.85,19.27l-44.2,71.84L240.38,1173.3c-1.39-2.26-2.81-4.48-4.1-6.77c-1.53-2.43-2.99-4.86-4.38-7.29
			c-2.64-4.34-5.14-8.72-7.57-13.13c-1.49-2.64-2.99-5.31-4.44-7.99c-1.04-1.81-2.05-3.65-2.99-5.49c-0.94-1.74-1.87-3.47-2.78-5.21
			c-2.85-5.38-5.62-10.8-8.33-16.25c-1.35-2.71-2.67-5.45-3.99-8.19c-1.32-2.74-2.64-5.49-3.92-8.26
			c-5.31-11.28-10.28-22.74-15-34.34c-4.51-11.15-8.78-22.47-12.78-33.85c-1.35-3.82-2.64-7.64-3.92-11.46
			c-0.62-1.94-1.28-3.92-1.91-5.87c-0.66-1.94-1.28-3.89-1.87-5.87c-0.62-1.94-1.22-3.92-1.84-5.9c-0.62-1.94-1.22-3.92-1.77-5.9
			c-1.15-3.96-2.29-7.92-3.4-11.91c-0.9-3.3-1.81-6.6-2.67-9.93c-0.24-0.76-0.45-1.56-0.62-2.33c-1.01-3.82-1.98-7.67-2.88-11.53
			c-0.17-0.56-0.28-1.11-0.42-1.67c-0.66-2.81-1.32-5.59-1.94-8.4c-0.35-1.42-0.69-2.88-0.97-4.34c-0.76-3.37-1.49-6.77-2.19-10.17
			c-0.83-4.03-1.63-8.09-2.4-12.15c-0.59-2.95-1.11-5.9-1.63-8.85c-0.52-2.85-1.01-5.66-1.46-8.54c-0.14-0.69-0.24-1.42-0.35-2.12
			l-0.1-0.62c-0.07-0.31-0.1-0.62-0.14-0.94c-0.42-2.43-0.8-4.9-1.11-7.36c-0.14-0.52-0.21-1.08-0.24-1.6
			c-0.28-1.67-0.52-3.33-0.73-5c-0.07-0.35-0.14-0.66-0.14-1.01c-0.52-3.37-0.94-6.77-1.35-10.17c-0.45-3.58-0.87-7.19-1.25-10.8
			c-0.1-0.59-0.17-1.18-0.21-1.81c-0.03-0.17-0.07-0.35-0.07-0.52c-0.07-0.49-0.1-1.01-0.14-1.53c-0.24-1.91-0.42-3.82-0.59-5.73
			c-0.17-1.42-0.31-2.85-0.42-4.31c-0.14-1.42-0.24-2.85-0.38-4.31c-0.69-7.92-1.25-15.9-1.67-23.89
			c-0.21-3.61-0.35-7.26-0.49-10.87c-0.03-0.24-0.03-0.45-0.03-0.69c-0.07-2.08-0.14-4.17-0.21-6.28
			c-0.14-3.85-0.21-7.74-0.28-11.63c-0.03-3.61-0.07-7.26-0.07-10.87c0-8.82,0.14-17.57,0.49-26.32c0.03-2.15,0.14-4.27,0.24-6.42
			c0.31-7.99,0.8-15.97,1.39-23.89c0.1-1.32,0.21-2.64,0.31-3.96c0.07-0.83,0.14-1.63,0.21-2.43c0.17-2.29,0.38-4.55,0.59-6.81
			c0.21-2.22,0.42-4.44,0.66-6.67c0.21-2.15,0.45-4.31,0.69-6.49c1.98-17.88,4.58-35.59,7.81-53.06c0.35-1.87,0.69-3.78,1.08-5.66
			c0.9-4.83,1.87-9.65,2.92-14.44c0.38-1.74,0.76-3.51,1.15-5.24c0.56-2.57,1.15-5.1,1.74-7.64c1.77-7.64,3.65-15.21,5.66-22.78
			c0.42-1.67,0.87-3.37,1.35-5.03c1.32-4.93,2.71-9.83,4.17-14.72c0.83-2.78,1.67-5.52,2.5-8.26c0.69-2.33,1.42-4.65,2.19-6.94
			c0.73-2.29,1.46-4.62,2.22-6.91c1.53-4.58,3.09-9.17,4.69-13.72c3.19-9.13,6.56-18.16,10.1-27.12c0.87-2.22,1.77-4.48,2.67-6.7
			c0.9-2.22,1.84-4.44,2.78-6.67c1.6-3.78,3.19-7.57,4.86-11.35c1.32-3.06,2.67-6.11,4.06-9.13c0.87-1.94,1.77-3.89,2.67-5.83
			c4.03-8.68,8.23-17.29,12.6-25.8c2.33-4.55,4.69-9.03,7.08-13.51c2.12-3.92,4.27-7.85,6.46-11.74
			c3.58-6.39,7.29-12.74,11.08-19.03c0.94-1.63,1.94-3.26,2.95-4.86c0.28-0.52,0.62-1.08,0.97-1.6c2.29-3.75,4.62-7.47,6.98-11.18
			c2.74-4.27,5.49-8.47,8.3-12.67c1.25-1.88,2.5-3.72,3.75-5.56c3.92-5.76,7.92-11.49,11.98-17.12c0.03-0.03,0.03-0.03,0.07-0.07
			c0.07-0.1,0.17-0.21,0.24-0.31c1.18-1.63,2.33-3.23,3.51-4.83C273.92,336.46,274.48,335.73,275.03,335z"/>
	</g>
	<g>
		<g>
			<linearGradient id="SVGID_2_" gradientUnits="userSpaceOnUse" x1="901.9496" y1="2005.0989" x2="951.0121" y2="-82.7855">
				<stop  offset="0" style="stop-color:#D8B2E0"/>
				<stop  offset="1" style="stop-color:#9AFFFF"/>
			</linearGradient>
			<path class="st2" d="M1376.25,1336.08c-132.57,119.2-307.85,191.84-499.76,191.84c-155.07,0-299.31-47.43-418.89-128.54
				l388.26-149.34l2.33-0.9L630,999.76l279.76-31.08l-30.73-184.44l276.49,245.8l-125.42,219.51L1376.25,1336.08z"/>
		</g>
		<g>
			<linearGradient id="SVGID_3_" gradientUnits="userSpaceOnUse" x1="552.3254" y1="1996.8831" x2="601.3879" y2="-91.0012">
				<stop  offset="0" style="stop-color:#D8B2E0"/>
				<stop  offset="1" style="stop-color:#9AFFFF"/>
			</linearGradient>
			<path class="st3" d="M622.99,997.05l219.31,250.62L454.1,1396.98c-84.72-58.12-156.94-133.23-211.67-220.38l167.36-271.98
				L286.25,719.27L875,781.25l30.73,184.37L622.99,997.05z"/>
		</g>
		<g>
			<linearGradient id="SVGID_4_" gradientUnits="userSpaceOnUse" x1="468.0398" y1="1994.9025" x2="517.1024" y2="-92.9818">
				<stop  offset="0" style="stop-color:#D8B2E0"/>
				<stop  offset="1" style="stop-color:#9AFFFF"/>
			</linearGradient>
			<path class="st4" d="M279.24,715.03l126.46,189.65L240.38,1173.3c-71.08-114.41-112.15-249.31-112.15-393.65
				c0-215.21,91.32-409.48,237.26-546.15l71.81,358.99l0.17,0.9l427.78,183.3L279.24,715.03z"/>
		</g>
		<g>
			<linearGradient id="SVGID_5_" gradientUnits="userSpaceOnUse" x1="1202.7179" y1="2012.1665" x2="1251.7805" y2="-75.7178">
				<stop  offset="0" style="stop-color:#D8B2E0"/>
				<stop  offset="1" style="stop-color:#9AFFFF"/>
			</linearGradient>
			<path class="st5" d="M1589.83,553.61v0.03l-151.35,192.64l-280.8-124.83L878.92,776.32l30.42-152.05l125.1-125.1l21.25-446.08
				C1308.78,115.52,1511.56,307.08,1589.83,553.61z"/>
		</g>
		<g>
			<linearGradient id="SVGID_6_" gradientUnits="userSpaceOnUse" x1="1223.2531" y1="2012.649" x2="1272.3156" y2="-75.2353">
				<stop  offset="0" style="stop-color:#D8B2E0"/>
				<stop  offset="1" style="stop-color:#9AFFFF"/>
			</linearGradient>
			<path class="st6" d="M1624.76,779.65c0,219.2-94.72,416.67-245.42,553.65l-343.96-86.01l124.58-217.99L879.48,780l278.37-154.65
				l281.67,125.21l151.6-192.95C1612.99,627.78,1624.76,702.36,1624.76,779.65z"/>
		</g>
	</g>
</g>
<g>
	<linearGradient id="SVGID_7_" gradientUnits="userSpaceOnUse" x1="528.7551" y1="-205.1708" x2="1930.9973" y2="1444.526">
		<stop  offset="0" style="stop-color:#F25D63"/>
		<stop  offset="0.4011" style="stop-color:#F0464C"/>
		<stop  offset="1" style="stop-color:#ED1C24"/>
	</linearGradient>
	<path class="st7" d="M1839.03,847.05c0,219.2-94.72,416.67-245.42,553.65l-343.96-86.01l124.58-217.99L1093.75,847.4l278.37-154.65
		l281.67,125.21L1805.38,625C1827.26,695.17,1839.03,769.76,1839.03,847.05z"/>
	<linearGradient id="SVGID_8_" gradientUnits="userSpaceOnUse" x1="-63.3995" y1="298.1606" x2="1338.8428" y2="1947.8574">
		<stop  offset="0" style="stop-color:#F25D63"/>
		<stop  offset="0.4011" style="stop-color:#F0464C"/>
		<stop  offset="1" style="stop-color:#ED1C24"/>
	</linearGradient>
	<path class="st8" d="M1468.75,1551.84c-132.57,119.2-307.85,191.84-499.76,191.84c-155.07,0-299.31-47.43-418.89-128.54
		l388.26-149.34l2.33-0.9L722.5,1215.52l279.76-31.08L971.53,1000l276.49,245.8l-125.42,219.51L1468.75,1551.84z"/>
	<linearGradient id="SVGID_9_" gradientUnits="userSpaceOnUse" x1="-113.5689" y1="340.8046" x2="1288.6735" y2="1990.5013">
		<stop  offset="0" style="stop-color:#F25D63"/>
		<stop  offset="0.4011" style="stop-color:#F0464C"/>
		<stop  offset="1" style="stop-color:#ED1C24"/>
	</linearGradient>
	<path class="st9" d="M630.56,1152.78l219.31,250.62l-388.19,149.31c-84.72-58.12-156.94-133.23-211.67-220.38l167.36-271.98
		L293.82,875l588.75,61.98l30.73,184.38L630.56,1152.78z"/>
	<linearGradient id="SVGID_10_" gradientUnits="userSpaceOnUse" x1="-116.7956" y1="343.5473" x2="1285.4468" y2="1993.244">
		<stop  offset="0" style="stop-color:#F25D63"/>
		<stop  offset="0.4011" style="stop-color:#F0464C"/>
		<stop  offset="1" style="stop-color:#ED1C24"/>
	</linearGradient>
	<path class="st10" d="M213.51,794.03l126.46,189.65l-165.31,268.61C103.58,1137.88,62.5,1002.99,62.5,858.65
		c0-215.21,91.32-409.48,237.26-546.15l71.81,358.99l0.17,0.9l427.78,183.3L213.51,794.03z"/>
	<linearGradient id="SVGID_11_" gradientUnits="userSpaceOnUse" x1="600.8106" y1="-266.418" x2="2003.0529" y2="1383.2788">
		<stop  offset="0" style="stop-color:#F25D63"/>
		<stop  offset="0.4011" style="stop-color:#F0464C"/>
		<stop  offset="1" style="stop-color:#ED1C24"/>
	</linearGradient>
	<path class="st11" d="M1687.5,527.29v0.03l-151.35,192.64l-280.8-124.83L976.6,750l30.42-152.05l125.1-125.1l21.25-446.08
		C1406.46,89.2,1609.24,280.76,1687.5,527.29z"/>
	<linearGradient id="SVGID_12_" gradientUnits="userSpaceOnUse" x1="395.1591" y1="-91.6142" x2="1797.4014" y2="1558.0825">
		<stop  offset="0" style="stop-color:#F25D63"/>
		<stop  offset="0.4011" style="stop-color:#F0464C"/>
		<stop  offset="1" style="stop-color:#ED1C24"/>
	</linearGradient>
	<path class="st12" d="M1052.26,52.26l-21.22,445.42L906.53,622.19l-0.38,0.38l-30.94,154.65L440.52,590.94l-72.05-360.21
		c29.58-27.36,61.35-52.4,95.03-74.76c32.19-20.52,65.63-39.24,100.17-56.01c95.21-44.03,201.22-68.58,312.81-68.58
		C937.01,31.39,995.87,38.61,1052.26,52.26z"/>
</g>
<linearGradient id="SVGID_13_" gradientUnits="userSpaceOnUse" x1="1552.3601" y1="637.8448" x2="1386.4805" y2="2115.45">
	<stop  offset="0" style="stop-color:#999999"/>
	<stop  offset="0.0588" style="stop-color:#949499"/>
	<stop  offset="0.2751" style="stop-color:#868699"/>
	<stop  offset="0.5412" style="stop-color:#7E7D99"/>
	<stop  offset="1" style="stop-color:#7C7B99"/>
</linearGradient>
<path class="st13" d="M1796.91,1604.17h-307.33l90.28,210.66c-34.03,24.24-69.65,46.42-106.67,66.32l-108.61-235.31l-208.33,291.67
	v-1000l450.73,450.73l201.04,201.04C1804.37,1594.27,1800.66,1599.24,1796.91,1604.17z"/>
<linearGradient id="SVGID_14_" gradientUnits="userSpaceOnUse" x1="987.9481" y1="1209.8596" x2="1552.6761" y2="1805.5316">
	<stop  offset="0" style="stop-color:#CDD9F0"/>
	<stop  offset="0.3061" style="stop-color:#AAB1CB"/>
	<stop  offset="0.5856" style="stop-color:#9193AF"/>
	<stop  offset="0.8262" style="stop-color:#81819F"/>
	<stop  offset="1" style="stop-color:#7C7B99"/>
</linearGradient>
<path class="st14" d="M1723.81,1575.91l-267.5,3.76l92.5,226.69c-27.08,18.71-18.24,11.73-59.93,39.08l-117.24-244.3l-182.71,253.07
	v-834.88l376.31,376.31l167.85,167.85C1730.04,1567.65,1726.94,1571.79,1723.81,1575.91z"/>
</svg>
